<svg width="40" height="40" viewBox="0 0 40 40" fill="none" xmlns="http://www.w3.org/2000/svg">
<g clip-path="url(#clip0_645_10705)">
<path d="M17.4895 27.2752C17.0966 27.2751 16.7199 27.119 16.4421 26.8411L8.82138 19.2222C8.68381 19.0846 8.57468 18.9213 8.50022 18.7416C8.42577 18.5618 8.38745 18.3692 8.38745 18.1746C8.38745 17.7817 8.54354 17.4049 8.82138 17.127C9.09922 16.8492 9.47605 16.6931 9.86897 16.6931C10.2619 16.6931 10.6387 16.8492 10.9166 17.127L17.4895 23.6985L36.1014 5.08703C36.2384 4.94693 36.4018 4.83538 36.5822 4.75886C36.7626 4.68235 36.9563 4.64237 37.1523 4.64126C37.3482 4.64015 37.5424 4.67791 37.7237 4.75238C37.9049 4.82684 38.0696 4.93652 38.2082 5.07506C38.3467 5.2136 38.4564 5.37826 38.5309 5.55949C38.6054 5.74072 38.6432 5.93493 38.6422 6.13088C38.6411 6.32682 38.6011 6.5206 38.5246 6.701C38.4482 6.8814 38.3366 7.04484 38.1966 7.18185L18.5373 26.8411C18.3997 26.9787 18.2364 27.0879 18.0566 27.1624C17.8768 27.2369 17.6841 27.2752 17.4895 27.2752Z" fill="#06C167"/>
<path d="M19.9999 39.9081C15.4068 39.9058 10.9558 38.3158 7.40084 35.4074C3.84591 32.499 1.40572 28.4511 0.493702 23.9494C-0.41832 19.4478 0.25391 14.7693 2.3965 10.7066C4.53909 6.64391 8.02029 3.44681 12.2503 1.65698C15.3561 0.34793 18.7431 -0.152374 22.0948 0.202826C25.4465 0.558027 28.6534 1.75714 31.4158 3.68809C31.5751 3.79977 31.7109 3.94172 31.8154 4.10586C31.9198 4.27 31.9909 4.4531 32.0246 4.64472C32.0583 4.83634 32.0539 5.03271 32.0117 5.22263C31.9695 5.41255 31.8903 5.5923 31.7786 5.75161C31.6669 5.91093 31.525 6.04668 31.3608 6.15113C31.1967 6.25558 31.0136 6.32668 30.822 6.36037C30.6304 6.39406 30.434 6.38967 30.2441 6.34747C30.0542 6.30526 29.8744 6.22606 29.7151 6.11439C26.8703 4.11588 23.4765 3.04708 19.9999 3.05476C10.6562 3.05476 3.05473 10.6562 3.05473 19.9999C3.05473 29.3436 10.6562 36.9451 19.9999 36.9451C29.3436 36.9451 36.9451 29.3436 36.9451 19.9999C36.9488 17.874 36.5504 15.7664 35.771 13.7885C35.6955 13.6066 35.6569 13.4116 35.6577 13.2147C35.6584 13.0178 35.6983 12.823 35.7752 12.6417C35.8521 12.4604 35.9643 12.2963 36.1054 12.1589C36.2464 12.0215 36.4134 11.9136 36.5966 11.8415C36.7799 11.7694 36.9756 11.7346 37.1725 11.739C37.3693 11.7434 37.5633 11.787 37.7431 11.8673C37.9229 11.9476 38.0849 12.0629 38.2196 12.2065C38.3543 12.3501 38.459 12.5191 38.5277 12.7036C39.7183 15.7227 40.1525 18.9872 39.7926 22.2125C39.4326 25.4379 38.2894 28.5263 36.4626 31.2087C34.6357 33.891 32.1807 36.086 29.3113 37.6022C26.4419 39.1185 23.2453 39.9101 19.9999 39.9081Z" fill="#06C167"/>
</g>
<defs>
<clipPath id="clip0_645_10705">
<rect width="40" height="40" fill="white"/>
</clipPath>
</defs>
</svg>
