<svg width="23" height="23" viewBox="0 0 23 23" fill="none" xmlns="http://www.w3.org/2000/svg">
<path d="M12.0521 16.5521C12.2674 16.3361 12.375 16.0688 12.375 15.75C12.375 15.4312 12.267 15.1643 12.051 14.949C11.835 14.7338 11.568 14.6257 11.25 14.625C10.932 14.6243 10.665 14.7323 10.449 14.949C10.233 15.1658 10.125 15.4327 10.125 15.75C10.125 16.0672 10.233 16.3346 10.449 16.5521C10.665 16.7696 10.932 16.8773 11.25 16.875C11.568 16.8727 11.8354 16.7659 12.0521 16.5521ZM10.125 12.375H12.375V5.625H10.125V12.375ZM11.25 22.5C9.69375 22.5 8.23125 22.2045 6.8625 21.6135C5.49375 21.0225 4.30313 20.2211 3.29063 19.2094C2.27813 18.1976 1.47675 17.007 0.886502 15.6375C0.296252 14.268 0.000751424 12.8055 1.42405e-06 11.25C-0.000748576 9.6945 0.294751 8.232 0.886502 6.8625C1.47825 5.493 2.27963 4.30238 3.29063 3.29063C4.30163 2.27888 5.49225 1.4775 6.8625 0.8865C8.23275 0.2955 9.69525 0 11.25 0C12.8048 0 14.2673 0.2955 15.6375 0.8865C17.0078 1.4775 18.1984 2.27888 19.2094 3.29063C20.2204 4.30238 21.0221 5.493 21.6146 6.8625C22.2071 8.232 22.5023 9.6945 22.5 11.25C22.4978 12.8055 22.2023 14.268 21.6135 15.6375C21.0248 17.007 20.2234 18.1976 19.2094 19.2094C18.1954 20.2211 17.0048 21.0229 15.6375 21.6146C14.2703 22.2064 12.8078 22.5015 11.25 22.5Z" fill="#F00D0D"/>
</svg>
