<svg width="25" height="25" viewBox="0 0 25 25" fill="none" xmlns="http://www.w3.org/2000/svg">
<path d="M12.25 0C9.82718 0 7.45877 0.71845 5.44427 2.0645C3.42977 3.41054 1.85965 5.32373 0.932481 7.56213C0.00530772 9.80052 -0.237283 12.2636 0.235386 14.6399C0.708055 17.0161 1.87475 19.1989 3.58795 20.9121C5.30114 22.6252 7.48388 23.792 9.86015 24.2646C12.2364 24.7373 14.6995 24.4947 16.9379 23.5675C19.1763 22.6404 21.0895 21.0702 22.4355 19.0557C23.7816 17.0412 24.5 14.6728 24.5 12.25C24.5 9.0011 23.2094 5.88526 20.9121 3.58794C18.6147 1.29062 15.4989 0 12.25 0ZM10.5 17.1413L6.12501 12.7663L7.51626 11.375L10.5 14.3587L16.9838 7.875L18.3803 9.26275L10.5 17.1413Z" fill="#0CE578"/>
</svg>
